<svg id="name_her"
		 width="24"
		 height="24"
		 viewBox="0 0 24 24"
		 style="enable-background:new 0 0 24 24;"
		 xmlns="http://www.w3.org/2000/svg"
		 xml:space="preserve"
		 version="1.1">
	<style type="text/css">
		.st0 {
			fill: #EC4899;
		}

		.st1 {
			fill: #FFFFFF;
		}

		.st2 {
			display: none;
			fill: none;
			stroke: #3B82F6;
			stroke-miterlimit: 10;
		}
	</style>
	<path id="outline" class="st0"
				d="M10.72,3.14c2.47-0.29,3.95,0.52,4.18,0.57c0.1,0.03,1.53-0.36,2.76-0.96 c1.34-0.66,2.49-1.54,2.49-1.54s0.58,2.71-0.09,4.5c-0.67,1.79-0.95,2.06-0.95,2.06s1.86,2.91-0.29,5.79 c-2.23,3.04-3.3,3.22-3.37,3.34c-0.08,0.1,0.15,1.93,0.45,2.54c0.35,0.71,1.28,1.76,1.44,2c0.06,0.1-2.21,1.12-3.88,1.34 c-2.5,0.33-4.76-0.44-4.76-0.46c-0.03-0.03-0.55-1.83-0.66-2.94c-0.12-1.23,0.21-2.35,0.09-2.45c-0.09-0.09-2.78-1.04-3.88-3.05 c-1.19-2.15-1.12-4.56-1.12-4.56S1.48,7.14,1.38,4.97C1.29,2.81,1.66,1.29,1.66,1.29s1.74,1.14,2.4,1.49 C4.68,3.12,6.6,4.08,6.7,4.05C6.84,4.01,8.04,3.46,10.72,3.14z" />
	<g id="eyes">
		<circle class="st1" cx="13.79" cy="8.23" r="1.43" />
		<path class="st0"
					d="M14.38,8.17c0,0.43-0.35,0.78-0.78,0.78c-0.43,0-0.78-0.35-0.78-0.78c0-0.43,0.35-0.78,0.78-0.78 c0.13,0,0.25,0.03,0.35,0.08c0.09,0.05-0.22,0.18,0,0.45c0.18,0.22,0.38-0.04,0.4,0.09C14.37,8.06,14.38,8.12,14.38,8.17z" />
		<circle class="st1" cx="8.21" cy="8.44" r="1.43" />
		<path class="st0"
					d="M8.76,8.4c0,0.43-0.35,0.78-0.78,0.78S7.21,8.83,7.21,8.4s0.35-0.78,0.78-0.78c0.13,0,0.25,0.03,0.35,0.08 c0.09,0.05-0.22,0.18,0,0.45c0.18,0.22,0.38-0.04,0.4,0.09C8.76,8.3,8.76,8.35,8.76,8.4z" />
	</g>
	<g id="wiskers">
		<g>
			<path class="st0" d="M3.72,12.39c-1.35,0.18-2.51,1.26-3.17,2.49c0.58-1.3,1.66-2.49,3.12-2.8C3.68,12.06,3.72,12.39,3.72,12.39 L3.72,12.39z" />
		</g>
		<g>
			<path class="st0" d="M3.86,13.04c-1.26,0.39-2.4,1.61-2.71,2.92c0.23-1.4,1.27-2.69,2.62-3.23C3.78,12.72,3.86,13.04,3.86,13.04 L3.86,13.04z" />
		</g>
		<g>
			<path class="st0" d="M4.34,13.65c-0.78,0.39-1.38,1.05-1.78,1.84c0.29-0.83,0.83-1.62,1.61-2.12L4.34,13.65L4.34,13.65z" />
		</g>
		<g>
			<path class="st0" d="M19.2,10.63c1.43-0.45,2.97,0.03,4.15,0.87c-1.21-0.74-2.75-1.09-4.04-0.56L19.2,10.63L19.2,10.63z" />
		</g>
		<g>
			<path class="st0" d="M19.42,11.26c1.44-0.21,3.01,0.38,3.92,1.48c-0.93-1-2.54-1.45-3.84-1.17 C19.51,11.57,19.42,11.26,19.42,11.26L19.42,11.26z" />
		</g>
		<g>
			<path class="st0" d="M19.41,12.02c0.92,0.05,1.8,0.45,2.48,1.04c-0.75-0.49-1.61-0.77-2.48-0.71V12.02L19.41,12.02z" />
		</g>
	</g>
	<circle id="round" class="st2" cx="12.02" cy="12.06" r="10.9" />
</svg>