<svg id="name_him"
		 width="24"
		 height="24"
		 viewBox="0 0 24 24"
		 style="enable-background:new 0 0 24 24;"
		 xmlns="http://www.w3.org/2000/svg"
		 xml:space="preserve"
		 version="1.1">
	<style type="text/css">
		.st0 {
			fill: #3B82F6;
		}

		.st1 {
			fill: #FFFFFF;
		}

		.st2 {
			display: none;
			fill: none;
			stroke: #3B82F6;
			stroke-miterlimit: 10;
		}
	</style>
	<path id="outline" class="st0" d="M10.82,3.24c2.47-0.29,3.95,0.52,4.18,0.57c0.1,0.03,1.53-0.36,2.76-0.96
	c1.34-0.66,2.49-1.54,2.49-1.54s0.58,2.71-0.09,4.5c-0.67,1.79-0.95,2.06-0.95,2.06s1.86,2.91-0.29,5.79
	c-2.23,3.04-3.3,3.22-3.37,3.34c-0.08,0.1,0.15,1.93,0.45,2.54c0.35,0.71,1.28,1.76,1.44,2c0.06,0.1-2.21,1.12-3.88,1.34
	c-2.5,0.33-4.76-0.44-4.76-0.46c-0.03-0.03-0.55-1.83-0.66-2.94c-0.12-1.23,0.21-2.35,0.09-2.45c-0.09-0.09-2.78-1.04-3.88-3.05
	c-1.19-2.15-1.12-4.56-1.12-4.56S1.58,7.24,1.47,5.07C1.38,2.9,1.76,1.38,1.76,1.38s1.74,1.14,2.4,1.49
	c0.61,0.34,2.53,1.3,2.63,1.27C6.94,4.11,8.13,3.55,10.82,3.24z" />
	<g id="eyes">
		<circle class="st1" cx="13.88" cy="8.33" r="1.43" />
		<path class="st0" d="M14.48,8.26c0,0.43-0.35,0.78-0.78,0.78c-0.43,0-0.78-0.35-0.78-0.78c0-0.43,0.35-0.78,0.78-0.78
		c0.13,0,0.25,0.03,0.35,0.08c0.09,0.05-0.22,0.18,0,0.45c0.18,0.22,0.38-0.04,0.4,0.09C14.47,8.16,14.48,8.21,14.48,8.26z" />
		<circle class="st1" cx="8.3" cy="8.53" r="1.43" />
		<path class="st0" d="M8.86,8.5c0,0.43-0.35,0.78-0.78,0.78C7.65,9.27,7.3,8.92,7.3,8.5c0-0.43,0.35-0.78,0.78-0.78
		c0.13,0,0.25,0.03,0.35,0.08c0.09,0.05-0.22,0.18,0,0.45c0.18,0.22,0.38-0.04,0.4,0.09C8.86,8.39,8.86,8.44,8.86,8.5z" />
	</g>
	<g id="wiskers">
		<g>
			<path class="st0" d="M3.81,12.48c-1.35,0.18-2.51,1.26-3.17,2.49c0.58-1.3,1.66-2.49,3.12-2.8C3.77,12.16,3.81,12.48,3.81,12.48
			L3.81,12.48z" />
		</g>
		<g>
			<path class="st0" d="M3.95,13.13c-1.26,0.39-2.4,1.61-2.71,2.92c0.23-1.4,1.27-2.69,2.62-3.23C3.87,12.82,3.95,13.13,3.95,13.13
			L3.95,13.13z" />
		</g>
		<g>
			<path class="st0" d="M4.43,13.74c-0.78,0.39-1.38,1.05-1.78,1.84c0.29-0.83,0.83-1.62,1.61-2.12L4.43,13.74L4.43,13.74z" />
		</g>
		<g>
			<path class="st0" d="M19.29,10.73c1.43-0.45,2.97,0.03,4.15,0.87c-1.21-0.74-2.75-1.09-4.04-0.56L19.29,10.73L19.29,10.73z" />
		</g>
		<g>
			<path class="st0" d="M19.51,11.35c1.44-0.21,3.01,0.38,3.92,1.48c-0.93-1-2.54-1.45-3.84-1.17
			C19.61,11.66,19.51,11.35,19.51,11.35L19.51,11.35z" />
		</g>
		<g>
			<path class="st0" d="M19.5,12.12c0.92,0.05,1.8,0.45,2.48,1.04c-0.75-0.49-1.61-0.77-2.48-0.71V12.12L19.5,12.12z" />
		</g>
	</g>
	<circle id="round" class="st2" cx="12.02" cy="12.06" r="10.9" />
</svg>