<svg id="name_him"
		 width="24"
		 height="24"
		 viewBox="0 0 24 24"
		 style="enable-background:new 0 0 24 24;"
		 xmlns="http://www.w3.org/2000/svg"
		 xml:space="preserve"
		 version="1.1">
	<style type="text/css">
		.st0 {
			fill: #3B82F6;
		}

		.st1 {
			fill: #FFFFFF;
		}

		.st2 {
			fill: none;
			stroke: #3B82F6;
			stroke-miterlimit: 10;
		}
	</style>
	<path id="outline"
				class="st0"
				d="M11.9,8.13c1.9-0.22,3.04,0.4,3.22,0.44c0.08,0.02,1.18-0.28,2.13-0.74 c1.03-0.51,1.92-1.19,1.92-1.19s0.45,2.09-0.07,3.47s-0.73,1.59-0.73,1.59s1.43,2.24-0.22,4.46c-1.72,2.34-2.54,2.48-2.6,2.57 c-0.06,0.08,0.11,0.56,0.65,0.98c0.33,0.26,1.8,1.04,1.83,1.08c0.01,0.02-1.66,1.15-3.57,1.69c-1.87,0.53-4.22,0.08-4.22,0.07 c-0.02-0.02-0.32-1.05-0.4-1.91c-0.09-0.95,0.16-1.81,0.07-1.89c-0.07-0.07-2.14-0.8-2.99-2.35c-0.92-1.66-0.86-3.51-0.86-3.51 S4.78,11.21,4.7,9.54C4.63,7.87,4.92,6.7,4.92,6.7s1.34,0.88,1.85,1.15C7.24,8.11,8.72,8.85,8.8,8.83C8.91,8.8,9.83,8.37,11.9,8.13z" />
	<g id="eyes">
		<circle class="st1" cx="14.26" cy="12.05" r="1.1" />
		<path class="st0"
					d="M14.72,12c0,0.33-0.27,0.6-0.6,0.6s-0.6-0.27-0.6-0.6s0.27-0.6,0.6-0.6c0.1,0,0.19,0.02,0.27,0.06 c0.07,0.04-0.17,0.14,0,0.35c0.14,0.17,0.29-0.03,0.31,0.07C14.71,11.92,14.72,11.96,14.72,12z" />
		<circle class="st1" cx="9.96" cy="12.21" r="1.1" />
		<path class="st0"
					d="M10.39,12.18c0,0.33-0.27,0.6-0.6,0.6s-0.6-0.27-0.6-0.6s0.27-0.6,0.6-0.6c0.1,0,0.19,0.02,0.27,0.06 c0.07,0.04-0.17,0.14,0,0.35c0.14,0.17,0.29-0.03,0.31,0.07C10.39,12.1,10.39,12.14,10.39,12.18z" />
	</g>
	<g id="wiskers">
		<g>
			<path class="st0" d="M6.5,15.25c-1.04,0.14-1.93,0.97-2.44,1.92c0.45-1,1.28-1.92,2.4-2.16C6.47,15,6.5,15.25,6.5,15.25L6.5,15.25 z" />
		</g>
		<g>
			<path class="st0" d="M6.61,15.75c-0.97,0.3-1.85,1.24-2.09,2.25c0.18-1.08,0.98-2.07,2.02-2.49C6.55,15.51,6.61,15.75,6.61,15.75 L6.61,15.75z" />
		</g>
		<g>
			<path class="st0" d="M6.98,16.22c-0.6,0.3-1.06,0.81-1.37,1.42c0.22-0.64,0.64-1.25,1.24-1.63L6.98,16.22L6.98,16.22z" />
		</g>
		<g>
			<path class="st0" d="M18.43,13.9c1.1-0.35,2.29,0.02,3.2,0.67c-0.93-0.57-2.12-0.84-3.11-0.43L18.43,13.9L18.43,13.9z" />
		</g>
		<g>
			<path class="st0" d="M18.6,14.38c1.11-0.16,2.32,0.29,3.02,1.14c-0.72-0.77-1.96-1.12-2.96-0.9C18.67,14.62,18.6,14.38,18.6,14.38 L18.6,14.38z" />
		</g>
		<g>
			<path class="st0" d="M18.59,14.97c0.71,0.04,1.39,0.35,1.91,0.8c-0.58-0.38-1.24-0.59-1.91-0.55L18.59,14.97L18.59,14.97z" />
		</g>
	</g>
	<circle id="round" class="st2" cx="12.02" cy="12.06" r="10.9" />
</svg>